<svg xmlns="http://www.w3.org/2000/svg" width="15.999" height="15.999" viewBox="0 0 15.999 15.999">
  <path id="calendar" d="M1304.875,1535a1.876,1.876,0,0,1-1.875-1.875v-11a1.876,1.876,0,0,1,1.875-1.875h.75V1519h1.25v1.25h8.25V1519h1.25v1.25h.75a1.876,1.876,0,0,1,1.875,1.875v11a1.876,1.876,0,0,1-1.875,1.875Zm-.625-1.875a.626.626,0,0,0,.625.625h12.25a.626.626,0,0,0,.625-.625v-8.249h-13.5Zm0-11v1.5h13.5v-1.5a.626.626,0,0,0-.625-.625h-.75v1.249h-1.25V1521.5h-8.25v1.249h-1.25V1521.5h-.75A.625.625,0,0,0,1304.25,1522.124Zm8.619,10.316v-1.25h1.25v1.25Zm-2.5,0v-1.25h1.25v1.25Zm-2.5,0v-1.25h1.25v1.25Zm-2.5,0v-1.25h1.25v1.25Zm10-2.5v-1.25h1.25v1.25Zm-2.5,0v-1.25h1.25v1.25Zm-2.5,0v-1.25h1.25v1.25Zm-2.5,0v-1.25h1.25v1.25Zm-2.5,0v-1.25h1.25v1.25Zm10-2.5v-1.249h1.25v1.249Zm-2.5,0v-1.249h1.25v1.249Zm-2.5,0v-1.249h1.25v1.249Zm-2.5,0v-1.249h1.25v1.249Zm-2.5,0v-1.249h1.25v1.249Z" transform="translate(-1303 -1518.999)" fill="#fe3e57"/>
</svg>
